<?xml version="1.0"?>
<svg xmlns="http://www.w3.org/2000/svg" height="512px" viewBox="0 0 464 464.008" width="512px" class=""><g><path d="m233.125 315.503906 11.886719 47.542969 30.441406-20.285156-30-30zm0 0" data-original="#000000" class="active-path" data-old_color="#000000" fill="#00AEED"/><path d="m280.003906 224c-4.414062 0-8 3.585938-8 8s3.585938 8 8 8h16c4.417969 0 8-3.585938 8-8s-3.582031-8-8-8zm0 0" data-original="#000000" class="active-path" data-old_color="#000000" fill="#00AEED"/><path d="m320.003906 300.6875v-10.800781c-9.9375 3.898437-20.703125 6.113281-32 6.113281s-22.0625-2.214844-32-6.113281v10.800781l32 32zm0 0" data-original="#000000" class="active-path" data-old_color="#000000" fill="#00AEED"/><path d="m376.003906 136v72c0 5.472656-.566406 10.800781-1.527344 16h17.527344c8.824219 0 16-7.175781 16-16v-56c0-8.824219-7.175781-16-16-16zm0 0" data-original="#000000" class="active-path" data-old_color="#000000" fill="#00AEED"/><path d="m318.53125 224h39.625c1.175781-5.152344 1.855469-10.496094 1.855469-16v-75.777344c-6.671875 2.394532-13.679688 3.777344-20.839844 3.777344h-11.167969v-7.136719c-8.75 4.609375-18.617187 7.136719-28.839844 7.136719h-11.160156v-7.136719c-8.75 4.609375-18.617187 7.136719-28.839844 7.136719h-11.160156v-7.136719c-8.75 4.609375-18.617187 7.136719-28.839844 7.136719h-3.160156v72c0 39.703125 32.296875 72 72 72 28.199219 0 52.59375-16.335938 64.398438-40h-33.878906c-3.3125 9.289062-12.113282 16-22.527344 16h-16c-13.230469 0-24-10.769531-24-24s10.769531-24 24-24h16c10.425781 0 19.222656 6.710938 22.535156 16zm17.472656-72c4.417969 0 8 3.585938 8 8s-3.582031 8-8 8c-4.414062 0-8-3.585938-8-8s3.585938-8 8-8zm-96 16c-4.414062 0-8-3.585938-8-8s3.585938-8 8-8c4.417969 0 8 3.585938 8 8 0 4.425781-3.582031 8-8 8zm0 0" data-original="#000000" class="active-path" data-old_color="#000000" fill="#00AEED"/><path d="m200.003906 96h16v24h3.160156c15.382813 0 29.65625-7.640625 38.183594-20.441406l13.3125 8.875c-2.839844 4.261718-6.160156 8.09375-9.855468 11.460937 14.742187-.527343 28.320312-8 36.542968-20.335937l13.3125 8.875c-2.839844 4.261718-6.160156 8.09375-9.855468 11.460937 14.742187-.527343 28.320312-8 36.542968-20.335937l13.3125 8.875c-2.839844 4.253906-6.152344 8.078125-9.839844 11.445312 6.710938-.238281 13.230469-1.957031 19.183594-5v-18.878906h16v24h16v-30.527344c0-11.6875-7.449218-22.015625-18.527344-25.703125l-3.144531-1.058593-4.792969-9.566407c-16.335937-32.671875-49.175781-52.96875-85.710937-52.96875-52.832031 0-95.824219 42.992188-95.824219 95.824219v24h16zm0 0" data-original="#000000" class="active-path" data-old_color="#000000" fill="#00AEED"/><path d="m432.683594 335.464844-74.183594-16.488282-17.488281 69.984376-24-16-4.808594 19.246093 14.359375 71.800781h73.441406v-88h16v88h48v-89.496093c0-18.894531-12.878906-34.953125-31.320312-39.046875zm0 0" data-original="#000000" class="active-path" data-old_color="#000000" fill="#00AEED"/><path d="m234.996094 388.953125-17.488282-69.984375-74.183593 16.488281c-18.441407 4.101563-31.320313 20.160157-31.320313 39.054688v89.496093h48v-88h16v88h73.441406l14.359376-71.800781-4.808594-19.246093zm0 0" data-original="#000000" class="active-path" data-old_color="#000000" fill="#00AEED"/><path d="m297.757812 384 5.117188-20.472656-14.871094-9.910156-14.871094 9.910156 5.121094 20.472656zm0 0" data-original="#000000" class="active-path" data-old_color="#000000" fill="#00AEED"/><path d="m278.5625 400-12.796875 64h44.476563l-12.796876-64zm0 0" data-original="#000000" class="active-path" data-old_color="#000000" fill="#00AEED"/><path d="m184.003906 224h17.527344c-.960938-5.199219-1.527344-10.527344-1.527344-16v-72h-16c-8.824218 0-16 7.175781-16 16v56c0 8.824219 7.175782 16 16 16zm0 0" data-original="#000000" class="active-path" data-old_color="#000000" fill="#00AEED"/><path d="m342.882812 315.503906-12.328124-2.742187-30 30 30.441406 20.285156zm0 0" data-original="#000000" class="active-path" data-old_color="#000000" fill="#00AEED"/><path d="m112.003906 104v-24h24v-80h-135.99999975v80h79.99999975zm-96-88h104v16h-104zm0 32h104v16h-104zm0 0" data-original="#000000" class="active-path" data-old_color="#000000" fill="#00AEED"/><path d="m152.003906 280h-128l8-16v-96h-31.99999975v96l15.99999975 32h136zm0 0" data-original="#000000" class="active-path" data-old_color="#000000" fill="#00AEED"/><path d="m32.003906 136c0-8.839844-7.160156-16-16-16s-15.99999975 7.160156-15.99999975 16v16h31.99999975zm0 0" data-original="#000000" class="active-path" data-old_color="#000000" fill="#00AEED"/><path d="m136.003906 248h16v16h-16zm0 0" data-original="#000000" class="active-path" data-old_color="#000000" fill="#00AEED"/><path d="m48.003906 248h72v16h-72zm0 0" data-original="#000000" class="active-path" data-old_color="#000000" fill="#00AEED"/><path d="m48.003906 216h72v16h-72zm0 0" data-original="#000000" class="active-path" data-old_color="#000000" fill="#00AEED"/><path d="m104.003906 184h16v16h-16zm0 0" data-original="#000000" class="active-path" data-old_color="#000000" fill="#00AEED"/><path d="m48.003906 184h40v16h-40zm0 0" data-original="#000000" class="active-path" data-old_color="#000000" fill="#00AEED"/></g> </svg>
