<?xml version="1.0"?>
<svg xmlns="http://www.w3.org/2000/svg" xmlns:xlink="http://www.w3.org/1999/xlink" version="1.1" id="Capa_1" x="0px" y="0px" viewBox="0 0 512 512" style="enable-background:new 0 0 512 512;" xml:space="preserve" width="512px" height="512px"><g><g>
	<g>
		<path d="M204.843,111.802c-21.898,0-39.713,17.816-39.713,39.714v47.733c-0.001,21.898,17.815,39.713,39.713,39.713    c21.899,0,39.714-17.815,39.714-39.713v-47.733C244.556,129.618,226.741,111.802,204.843,111.802z M214.17,199.249    c0,5.143-4.184,9.327-9.328,9.327c-5.143,0-9.327-4.184-9.327-9.327v-47.733c0-5.143,4.184-9.328,9.328-9.328    c5.143,0,9.327,4.185,9.327,9.328V199.249z" data-original="#000000" class="active-path" data-old_color="#000000" fill="#00AEED"/>
	</g>
</g><g>
	<g>
		<path d="M114.506,159.481c-4.765-1.739-9.694-3.536-12.266-5.476c-1.083-0.816-1.238-1.03-1.238-2.489    c0-5.143,4.184-9.328,9.328-9.328c4.217,0,7.922,2.836,9.011,6.896c2.173,8.105,10.5,12.914,18.609,10.74    c8.104-2.174,12.914-10.504,10.74-18.608c-4.643-17.319-20.417-29.414-38.36-29.414c-21.898,0-39.713,17.816-39.713,39.714    c0,24.299,20.956,31.944,33.477,36.511c14.812,5.403,15.565,7.103,15.565,11.222c0,5.143-4.184,9.327-9.328,9.327    c-4.315,0-8.139-3.042-9.094-7.232c-1.866-8.182-10.013-13.303-18.19-11.436c-8.181,1.866-13.301,10.009-11.436,18.19    c4.143,18.171,20.065,30.863,38.721,30.863c21.895,0,39.711-17.815,39.711-39.713    C150.044,172.444,127.798,164.329,114.506,159.481z" data-original="#000000" class="active-path" data-old_color="#000000" fill="#00AEED"/>
	</g>
</g><g>
	<g>
		<path d="M244.096,369.813H98.231c-8.39,0-15.193,6.802-15.193,15.193s6.802,15.193,15.193,15.193h145.865    c8.39,0,15.193-6.802,15.193-15.193S252.486,369.813,244.096,369.813z" data-original="#000000" class="active-path" data-old_color="#000000" fill="#00AEED"/>
	</g>
</g><g>
	<g>
		<path d="M492.06,153.24c-10.834-8.344-24.267-11.972-37.835-10.211c-13.563,1.76-25.628,8.698-33.973,19.533l-8.438,10.956V39.534    c0-8.39-6.802-15.193-15.193-15.193H15.193C6.802,24.342,0,31.144,0,39.534v432.931c0,8.39,6.802,15.193,15.193,15.193h381.428    c8.39,0,15.193-6.802,15.193-15.193V341.345l89.57-116.294c0-0.001,0-0.001,0-0.001    C518.611,202.682,514.429,170.468,492.06,153.24z M381.429,457.273h-0.001H30.385V54.727h351.043v158.244l-52.723,68.454    c-0.698-7.743-7.198-13.813-15.123-13.813H98.231c-8.39,0-15.193,6.802-15.193,15.193s6.802,15.193,15.193,15.193h215.352    c0.866,0,1.709-0.089,2.534-0.228l-16.131,20.943H98.231c-8.39,0-15.193,6.802-15.193,15.193s6.802,15.193,15.193,15.193h195.317    l1.639,40.663c0.182,4.495,2.346,8.679,5.91,11.424c2.681,2.065,5.947,3.156,9.271,3.156c1.095,0,2.197-0.119,3.285-0.359    l54.799-12.134c3.48-0.771,6.577-2.74,8.752-5.563l4.227-5.488V457.273z M356.495,363.372l-31.679,7.015l-1.307-32.42    l98.128-127.407l32.913,25.498L356.495,363.372z M477.311,206.51v-0.001l-4.219,5.477l-32.914-25.498l4.147-5.383    c3.394-4.405,8.298-7.226,13.813-7.942c5.513-0.718,10.976,0.758,15.383,4.152c4.406,3.393,7.226,8.298,7.942,13.813    C482.179,196.642,480.704,202.105,477.311,206.51z" data-original="#000000" class="active-path" data-old_color="#000000" fill="#00AEED"/>
	</g>
</g><g>
	<g>
		<path d="M305.658,159.481c-4.765-1.739-9.693-3.536-12.266-5.476c-1.098-0.828-1.238-1.021-1.238-2.489    c0-5.143,4.185-9.328,9.328-9.328c4.217,0,7.922,2.836,9.011,6.896c2.174,8.106,10.512,12.912,18.608,10.74    c8.105-2.174,12.914-10.504,10.74-18.608c-4.643-17.319-20.417-29.414-38.36-29.414c-21.898,0-39.714,17.816-39.714,39.714    c0.002,24.3,20.958,31.944,33.477,36.511c14.812,5.403,15.565,7.103,15.565,11.222c0,5.143-4.185,9.327-9.328,9.327    c-4.315,0-8.139-3.042-9.094-7.232c-1.866-8.182-10.013-13.303-18.19-11.436c-8.181,1.866-13.301,10.009-11.436,18.19    c4.143,18.171,20.065,30.863,38.72,30.863c21.898,0,39.714-17.815,39.714-39.713C341.197,172.444,318.95,164.329,305.658,159.481z    " data-original="#000000" class="active-path" data-old_color="#000000" fill="#00AEED"/>
	</g>
</g></g> </svg>
