<?xml version="1.0"?>
<svg xmlns="http://www.w3.org/2000/svg" xmlns:xlink="http://www.w3.org/1999/xlink" version="1.1" id="Capa_1" x="0px" y="0px" viewBox="0 0 257.947 257.947" style="enable-background:new 0 0 257.947 257.947;" xml:space="preserve" width="512px" height="512px"><g><path d="M197.708,98.691c0.763,2.183,1.199,4.518,1.199,6.958c0,4.143-3.357,7.5-7.5,7.5c-2.239,0-4.242-0.986-5.616-2.541  L197.708,98.691z M80.203,118.404c-11.67,0-21.165,9.494-21.165,21.164c0,4.143,3.358,7.5,7.5,7.5c0.022,0,0.044-0.003,0.066-0.003  l7.431-7.43c0-0.022,0.003-0.044,0.003-0.066c0-3.398,2.766-6.164,6.165-6.164h0.062l71.329-71.329  c-6.621-3.961-14.36-6.239-22.621-6.239c-19.26,0-35.673,12.381-41.724,29.599h-7.046c-11.67,0-21.165,9.494-21.165,21.165  c0,4.143,3.358,7.5,7.5,7.5s7.5-3.357,7.5-7.5c0-3.399,2.766-6.165,6.165-6.165h4.551v17.97H80.203z M177.744,132.453  c3.398,0,6.164,2.766,6.164,6.165c0,4.143,3.357,7.5,7.5,7.5s7.5-3.357,7.5-7.5c0-11.285-8.883-20.507-20.02-21.107l-75.268,75.269  c7.185,5.048,15.926,8.023,25.354,8.023c21.356,0,39.224-15.219,43.331-35.38h5.44c3.398,0,6.164,2.766,6.164,6.164  c0,4.143,3.357,7.5,7.5,7.5s7.5-3.357,7.5-7.5c0-11.67-9.494-21.164-21.164-21.164h-4.551v-17.97H177.744z M257.947,128.973  c0,71.116-57.857,128.974-128.974,128.974S0,200.089,0,128.973S57.857,0,128.973,0S257.947,57.857,257.947,128.973z M30,128.973  c0,21.413,6.837,41.257,18.44,57.47L186.442,48.44C170.23,36.837,150.385,30,128.973,30C74.399,30,30,74.4,30,128.973z   M227.947,128.973c0-22.903-7.823-44.012-20.933-60.801L68.172,207.014c16.789,13.11,37.898,20.932,60.801,20.932  C183.547,227.947,227.947,183.547,227.947,128.973z" data-original="#000000" class="active-path" data-old_color="#000000" fill="#00B8F1"/></g> </svg>
